<?xml version="1.0" encoding="utf-8" standalone="no"?>
<!DOCTYPE svg PUBLIC "-//W3C//DTD SVG 1.1//EN"
  "http://www.w3.org/Graphics/SVG/1.1/DTD/svg11.dtd">
<!-- Created with matplotlib (http://matplotlib.org/) -->
<svg height="432pt" version="1.1" viewBox="0 0 576 432" width="576pt" xmlns="http://www.w3.org/2000/svg" xmlns:xlink="http://www.w3.org/1999/xlink">
 <defs>
  <style type="text/css">
*{stroke-linecap:butt;stroke-linejoin:round;}
  </style>
 </defs>
 <g id="figure_1">
  <g id="patch_1">
   <path d="
M0 432
L576 432
L576 0
L0 0
z
" style="fill:#ffffff;"/>
  </g>
  <g id="axes_1">
   <g id="patch_2">
    <path d="
M72 388.8
L518.4 388.8
L518.4 43.2
L72 43.2
z
" style="fill:#ffffff;"/>
   </g>
   <g id="line2d_1">
    <path clip-path="url(#p7ff5b81e1d)" d="
M72 380.506
L80.928 363.917
L89.856 344.563
L98.784 314.15
L107.712 269.914
L116.64 228.442
L125.568 211.853
L134.496 245.03
L143.424 303.091
L152.352 355.622
L161.28 377.741
L170.208 380.506
L179.136 380.506
L188.064 363.917
L196.992 350.093
L205.92 347.328
L214.848 341.798
L223.776 308.621
L232.704 286.502
L241.632 292.032
L250.56 327.974
L259.488 327.974
L268.416 319.68
L277.344 325.21
L286.272 347.328
L295.2 377.741
L304.128 377.741
L313.056 374.976
L321.984 374.976
L330.912 374.976
L339.84 369.446
L348.768 352.858
L357.696 327.974
L366.624 300.326
L375.552 253.325
L384.48 209.088
L393.408 126.144
L402.336 59.7888
L411.264 90.2016
L420.192 206.323
L429.12 336.269
L438.048 374.976
L446.976 383.27
L455.904 372.211
L464.832 363.917
L473.76 333.504
L482.688 253.325
L491.616 164.851
L500.544 115.085
L509.472 206.323" style="fill:none;stroke:#0000ff;stroke-linecap:square;"/>
   </g>
   <g id="line2d_2">
    <path clip-path="url(#p7ff5b81e1d)" d="
M72 388.8
L80.928 383.27
L89.856 377.741
L98.784 363.917
L107.712 344.563
L116.64 336.269
L125.568 316.915
L134.496 319.68
L143.424 327.974
L152.352 347.328
L161.28 358.387
L170.208 355.622
L179.136 355.622
L188.064 366.682
L196.992 361.152
L205.92 363.917
L214.848 350.093
L223.776 347.328
L232.704 308.621
L241.632 275.443
L250.56 256.09
L259.488 292.032
L268.416 333.504
L277.344 366.682
L286.272 372.211
L295.2 366.682
L304.128 363.917
L313.056 361.152
L321.984 369.446
L330.912 363.917
L339.84 361.152
L348.768 355.622
L357.696 363.917
L366.624 374.976
L375.552 369.446
L384.48 363.917
L393.408 355.622
L402.336 363.917
L411.264 361.152
L420.192 369.446
L429.12 344.563
L438.048 322.445
L446.976 267.149
L455.904 258.854
L464.832 267.149
L473.76 300.326
L482.688 327.974
L491.616 347.328
L500.544 372.211
L509.472 383.27" style="fill:none;stroke:#008000;stroke-linecap:square;"/>
   </g>
   <g id="line2d_3">
    <path clip-path="url(#p7ff5b81e1d)" d="
M72 344.563
L80.928 303.091
L89.856 278.208
L98.784 278.208
L107.712 314.15
L116.64 352.858
L125.568 383.27
L134.496 386.035
L143.424 380.506
L152.352 377.741
L161.28 372.211
L170.208 361.152
L179.136 344.563
L188.064 339.034
L196.992 350.093
L205.92 361.152
L214.848 372.211
L223.776 374.976
L232.704 372.211
L241.632 363.917
L250.56 347.328
L259.488 341.798
L268.416 341.798
L277.344 347.328
L286.272 350.093
L295.2 339.034
L304.128 330.739
L313.056 316.915
L321.984 300.326
L330.912 278.208
L339.84 267.149
L348.768 278.208
L357.696 303.091
L366.624 341.798
L375.552 366.682
L384.48 386.035
L393.408 383.27
L402.336 386.035
L411.264 363.917
L420.192 322.445
L429.12 269.914
L438.048 245.03
L446.976 256.09
L455.904 272.678
L464.832 305.856
L473.76 316.915
L482.688 330.739
L491.616 330.739
L500.544 336.269
L509.472 358.387" style="fill:none;stroke:#ff0000;stroke-linecap:square;"/>
   </g>
   <g id="line2d_4">
    <path clip-path="url(#p7ff5b81e1d)" d="
M72 383.27
L80.928 380.506
L89.856 380.506
L98.784 369.446
L107.712 369.446
L116.64 369.446
L125.568 372.211
L134.496 374.976
L143.424 377.741
L152.352 377.741
L161.28 369.446
L170.208 361.152
L179.136 355.622
L188.064 344.563
L196.992 305.856
L205.92 242.266
L214.848 222.912
L223.776 253.325
L232.704 327.974
L241.632 347.328
L250.56 347.328
L259.488 336.269
L268.416 352.858
L277.344 366.682
L286.272 380.506
L295.2 377.741
L304.128 372.211
L313.056 355.622
L321.984 339.034
L330.912 308.621
L339.84 308.621
L348.768 319.68
L357.696 358.387
L366.624 372.211
L375.552 383.27
L384.48 377.741
L393.408 372.211
L402.336 355.622
L411.264 344.563
L420.192 339.034
L429.12 347.328
L438.048 355.622
L446.976 358.387
L455.904 352.858
L464.832 339.034
L473.76 330.739
L482.688 325.21
L491.616 341.798
L500.544 355.622
L509.472 374.976" style="fill:none;stroke:#00bfbf;stroke-linecap:square;"/>
   </g>
   <g id="line2d_5">
    <path clip-path="url(#p7ff5b81e1d)" d="
M72 374.976
L80.928 372.211
L89.856 374.976
L98.784 372.211
L107.712 363.917
L116.64 366.682
L125.568 369.446
L134.496 361.152
L143.424 314.15
L152.352 236.736
L161.28 159.322
L170.208 178.675
L179.136 258.854
L188.064 350.093
L196.992 372.211
L205.92 377.741
L214.848 372.211
L223.776 361.152
L232.704 341.798
L241.632 339.034
L250.56 341.798
L259.488 358.387
L268.416 366.682
L277.344 369.446
L286.272 369.446
L295.2 372.211
L304.128 380.506
L313.056 383.27
L321.984 383.27
L330.912 386.035
L339.84 374.976
L348.768 372.211
L357.696 366.682
L366.624 369.446
L375.552 374.976
L384.48 374.976
L393.408 374.976
L402.336 361.152
L411.264 352.858
L420.192 350.093
L429.12 347.328
L438.048 350.093
L446.976 352.858
L455.904 358.387
L464.832 363.917
L473.76 358.387
L482.688 361.152
L491.616 363.917
L500.544 358.387
L509.472 366.682" style="fill:none;stroke:#bf00bf;stroke-linecap:square;"/>
   </g>
   <g id="line2d_6">
    <path clip-path="url(#p7ff5b81e1d)" d="
M72 383.27
L80.928 380.506
L89.856 377.741
L98.784 377.741
L107.712 380.506
L116.64 380.506
L125.568 383.27
L134.496 380.506
L143.424 383.27
L152.352 386.035
L161.28 383.27
L170.208 358.387
L179.136 316.915
L188.064 294.797
L196.992 311.386
L205.92 339.034
L214.848 361.152
L223.776 361.152
L232.704 372.211
L241.632 374.976
L250.56 377.741
L259.488 366.682
L268.416 352.858
L277.344 341.798
L286.272 350.093
L295.2 361.152
L304.128 374.976
L313.056 374.976
L321.984 377.741
L330.912 380.506
L339.84 383.27
L348.768 380.506
L357.696 377.741
L366.624 363.917
L375.552 361.152
L384.48 350.093
L393.408 347.328
L402.336 314.15
L411.264 286.502
L420.192 275.443
L429.12 283.738
L438.048 316.915
L446.976 339.034
L455.904 350.093
L464.832 344.563
L473.76 339.034
L482.688 352.858
L491.616 358.387
L500.544 350.093
L509.472 358.387" style="fill:none;stroke:#bfbf00;stroke-linecap:square;"/>
   </g>
   <g id="line2d_7">
    <path clip-path="url(#p7ff5b81e1d)" d="
M72 380.506
L80.928 377.741
L89.856 374.976
L98.784 366.682
L107.712 358.387
L116.64 369.446
L125.568 366.682
L134.496 372.211
L143.424 361.152
L152.352 369.446
L161.28 369.446
L170.208 369.446
L179.136 361.152
L188.064 352.858
L196.992 358.387
L205.92 361.152
L214.848 363.917
L223.776 350.093
L232.704 355.622
L241.632 358.387
L250.56 363.917
L259.488 347.328
L268.416 336.269
L277.344 336.269
L286.272 350.093
L295.2 361.152
L304.128 374.976
L313.056 372.211
L321.984 377.741
L330.912 374.976
L339.84 377.741
L348.768 358.387
L357.696 358.387
L366.624 363.917
L375.552 386.035
L384.48 366.682
L393.408 347.328
L402.336 330.739
L411.264 339.034
L420.192 358.387
L429.12 374.976
L438.048 383.27
L446.976 377.741
L455.904 366.682
L464.832 347.328
L473.76 327.974
L482.688 316.915
L491.616 316.915
L500.544 311.386
L509.472 333.504" style="fill:none;stroke:#000000;stroke-linecap:square;"/>
   </g>
   <g id="line2d_8">
    <path clip-path="url(#p7ff5b81e1d)" d="
M72 386.035
L80.928 386.035
L89.856 380.506
L98.784 374.976
L107.712 363.917
L116.64 366.682
L125.568 363.917
L134.496 344.563
L143.424 314.15
L152.352 272.678
L161.28 258.854
L170.208 258.854
L179.136 267.149
L188.064 269.914
L196.992 272.678
L205.92 300.326
L214.848 333.504
L223.776 361.152
L232.704 377.741
L241.632 386.035
L250.56 386.035
L259.488 366.682
L268.416 344.563
L277.344 308.621
L286.272 300.326
L295.2 294.797
L304.128 303.091
L313.056 314.15
L321.984 330.739
L330.912 355.622
L339.84 358.387
L348.768 355.622
L357.696 347.328
L366.624 344.563
L375.552 333.504
L384.48 330.739
L393.408 344.563
L402.336 355.622
L411.264 330.739
L420.192 308.621
L429.12 303.091
L438.048 333.504
L446.976 347.328
L455.904 363.917
L464.832 366.682
L473.76 363.917
L482.688 363.917
L491.616 366.682
L500.544 372.211
L509.472 374.976" style="fill:none;stroke:#0000ff;stroke-linecap:square;"/>
   </g>
   <g id="matplotlib.axis_1">
    <g id="xtick_1">
     <g id="line2d_9">
      <defs>
       <path d="
M0 0
L0 -4" id="m93b0483c22" style="stroke:#000000;stroke-width:0.5;"/>
      </defs>
      <g>
       <use style="stroke:#000000;stroke-width:0.5;" x="72.0" xlink:href="#m93b0483c22" y="388.8"/>
      </g>
     </g>
     <g id="line2d_10">
      <defs>
       <path d="
M0 0
L0 4" id="m741efc42ff" style="stroke:#000000;stroke-width:0.5;"/>
      </defs>
      <g>
       <use style="stroke:#000000;stroke-width:0.5;" x="72.0" xlink:href="#m741efc42ff" y="43.2"/>
      </g>
     </g>
     <g id="text_1">
      <!-- 0 -->
      <defs>
       <path d="
M4.15625 35.2969
Q4.15625 48 6.76562 55.7344
Q9.375 63.4844 14.5156 67.6719
Q19.6719 71.875 27.4844 71.875
Q33.25 71.875 37.5938 69.5469
Q41.9375 67.2344 44.7656 62.8594
Q47.6094 58.5 49.2188 52.2188
Q50.8281 45.9531 50.8281 35.2969
Q50.8281 22.7031 48.2344 14.9688
Q45.6562 7.23438 40.5 3
Q35.3594 -1.21875 27.4844 -1.21875
Q17.1406 -1.21875 11.2344 6.20312
Q4.15625 15.1406 4.15625 35.2969
M13.1875 35.2969
Q13.1875 17.6719 17.3125 11.8281
Q21.4375 6 27.4844 6
Q33.5469 6 37.6719 11.8594
Q41.7969 17.7188 41.7969 35.2969
Q41.7969 52.9844 37.6719 58.7812
Q33.5469 64.5938 27.3906 64.5938
Q21.3438 64.5938 17.7188 59.4688
Q13.1875 52.9375 13.1875 35.2969" id="ArialMT-30"/>
      </defs>
      <g transform="translate(69.1996875 401.389375)scale(0.12 -0.12)">
       <use xlink:href="#ArialMT-30"/>
      </g>
     </g>
    </g>
    <g id="xtick_2">
     <g id="line2d_11">
      <g>
       <use style="stroke:#000000;stroke-width:0.5;" x="161.28" xlink:href="#m93b0483c22" y="388.8"/>
      </g>
     </g>
     <g id="line2d_12">
      <g>
       <use style="stroke:#000000;stroke-width:0.5;" x="161.28" xlink:href="#m741efc42ff" y="43.2"/>
      </g>
     </g>
     <g id="text_2">
      <!-- 200 -->
      <defs>
       <path d="
M50.3438 8.45312
L50.3438 0
L3.03125 0
Q2.9375 3.17188 4.04688 6.10938
Q5.85938 10.9375 9.82812 15.625
Q13.8125 20.3125 21.3438 26.4688
Q33.0156 36.0312 37.1094 41.625
Q41.2188 47.2188 41.2188 52.2031
Q41.2188 57.4219 37.4688 61
Q33.7344 64.5938 27.7344 64.5938
Q21.3906 64.5938 17.5781 60.7812
Q13.7656 56.9844 13.7188 50.25
L4.6875 51.1719
Q5.60938 61.2812 11.6562 66.5781
Q17.7188 71.875 27.9375 71.875
Q38.2344 71.875 44.2344 66.1562
Q50.25 60.4531 50.25 52
Q50.25 47.7031 48.4844 43.5469
Q46.7344 39.4062 42.6562 34.8125
Q38.5781 30.2188 29.1094 22.2188
Q21.1875 15.5781 18.9375 13.2031
Q16.7031 10.8438 15.2344 8.45312
z
" id="ArialMT-32"/>
      </defs>
      <g transform="translate(151.7334375 401.389375)scale(0.12 -0.12)">
       <use xlink:href="#ArialMT-32"/>
       <use x="55.615234375" xlink:href="#ArialMT-30"/>
       <use x="111.23046875" xlink:href="#ArialMT-30"/>
      </g>
     </g>
    </g>
    <g id="xtick_3">
     <g id="line2d_13">
      <g>
       <use style="stroke:#000000;stroke-width:0.5;" x="250.56" xlink:href="#m93b0483c22" y="388.8"/>
      </g>
     </g>
     <g id="line2d_14">
      <g>
       <use style="stroke:#000000;stroke-width:0.5;" x="250.56" xlink:href="#m741efc42ff" y="43.2"/>
      </g>
     </g>
     <g id="text_3">
      <!-- 400 -->
      <defs>
       <path d="
M32.3281 0
L32.3281 17.1406
L1.26562 17.1406
L1.26562 25.2031
L33.9375 71.5781
L41.1094 71.5781
L41.1094 25.2031
L50.7812 25.2031
L50.7812 17.1406
L41.1094 17.1406
L41.1094 0
z

M32.3281 25.2031
L32.3281 57.4688
L9.90625 25.2031
z
" id="ArialMT-34"/>
      </defs>
      <g transform="translate(240.913125 401.389375)scale(0.12 -0.12)">
       <use xlink:href="#ArialMT-34"/>
       <use x="55.615234375" xlink:href="#ArialMT-30"/>
       <use x="111.23046875" xlink:href="#ArialMT-30"/>
      </g>
     </g>
    </g>
    <g id="xtick_4">
     <g id="line2d_15">
      <g>
       <use style="stroke:#000000;stroke-width:0.5;" x="339.84" xlink:href="#m93b0483c22" y="388.8"/>
      </g>
     </g>
     <g id="line2d_16">
      <g>
       <use style="stroke:#000000;stroke-width:0.5;" x="339.84" xlink:href="#m741efc42ff" y="43.2"/>
      </g>
     </g>
     <g id="text_4">
      <!-- 600 -->
      <defs>
       <path d="
M49.75 54.0469
L41.0156 53.375
Q39.8438 58.5469 37.7031 60.8906
Q34.125 64.6562 28.9062 64.6562
Q24.7031 64.6562 21.5312 62.3125
Q17.3906 59.2812 14.9844 53.4688
Q12.5938 47.6562 12.5 36.9219
Q15.6719 41.75 20.2656 44.0938
Q24.8594 46.4375 29.8906 46.4375
Q38.6719 46.4375 44.8438 39.9688
Q51.0312 33.5 51.0312 23.25
Q51.0312 16.5 48.125 10.7188
Q45.2188 4.9375 40.1406 1.85938
Q35.0625 -1.21875 28.6094 -1.21875
Q17.625 -1.21875 10.6875 6.85938
Q3.76562 14.9375 3.76562 33.5
Q3.76562 54.25 11.4219 63.6719
Q18.1094 71.875 29.4375 71.875
Q37.8906 71.875 43.2812 67.1406
Q48.6875 62.4062 49.75 54.0469
M13.875 23.1875
Q13.875 18.6562 15.7969 14.5
Q17.7188 10.3594 21.1875 8.17188
Q24.6562 6 28.4688 6
Q34.0312 6 38.0312 10.4844
Q42.0469 14.9844 42.0469 22.7031
Q42.0469 30.125 38.0781 34.3906
Q34.125 38.6719 28.125 38.6719
Q22.1719 38.6719 18.0156 34.3906
Q13.875 30.125 13.875 23.1875" id="ArialMT-36"/>
      </defs>
      <g transform="translate(330.343125 401.389375)scale(0.12 -0.12)">
       <use xlink:href="#ArialMT-36"/>
       <use x="55.615234375" xlink:href="#ArialMT-30"/>
       <use x="111.23046875" xlink:href="#ArialMT-30"/>
      </g>
     </g>
    </g>
    <g id="xtick_5">
     <g id="line2d_17">
      <g>
       <use style="stroke:#000000;stroke-width:0.5;" x="429.12" xlink:href="#m93b0483c22" y="388.8"/>
      </g>
     </g>
     <g id="line2d_18">
      <g>
       <use style="stroke:#000000;stroke-width:0.5;" x="429.12" xlink:href="#m741efc42ff" y="43.2"/>
      </g>
     </g>
     <g id="text_5">
      <!-- 800 -->
      <defs>
       <path d="
M17.6719 38.8125
Q12.2031 40.8281 9.5625 44.5312
Q6.9375 48.25 6.9375 53.4219
Q6.9375 61.2344 12.5469 66.5469
Q18.1719 71.875 27.4844 71.875
Q36.8594 71.875 42.5781 66.4219
Q48.2969 60.9844 48.2969 53.1719
Q48.2969 48.1875 45.6719 44.5
Q43.0625 40.8281 37.75 38.8125
Q44.3438 36.6719 47.7812 31.875
Q51.2188 27.0938 51.2188 20.4531
Q51.2188 11.2812 44.7188 5.03125
Q38.2344 -1.21875 27.6406 -1.21875
Q17.0469 -1.21875 10.5469 5.04688
Q4.04688 11.3281 4.04688 20.7031
Q4.04688 27.6875 7.59375 32.3906
Q11.1406 37.1094 17.6719 38.8125
M15.9219 53.7188
Q15.9219 48.6406 19.1875 45.4062
Q22.4688 42.1875 27.6875 42.1875
Q32.7656 42.1875 36.0156 45.375
Q39.2656 48.5781 39.2656 53.2188
Q39.2656 58.0625 35.9062 61.3594
Q32.5625 64.6562 27.5938 64.6562
Q22.5625 64.6562 19.2344 61.4219
Q15.9219 58.2031 15.9219 53.7188
M13.0938 20.6562
Q13.0938 16.8906 14.875 13.375
Q16.6562 9.85938 20.1719 7.92188
Q23.6875 6 27.7344 6
Q34.0312 6 38.125 10.0469
Q42.2344 14.1094 42.2344 20.3594
Q42.2344 26.7031 38.0156 30.8594
Q33.7969 35.0156 27.4375 35.0156
Q21.2344 35.0156 17.1562 30.9062
Q13.0938 26.8125 13.0938 20.6562" id="ArialMT-38"/>
      </defs>
      <g transform="translate(419.64 401.389375)scale(0.12 -0.12)">
       <use xlink:href="#ArialMT-38"/>
       <use x="55.615234375" xlink:href="#ArialMT-30"/>
       <use x="111.23046875" xlink:href="#ArialMT-30"/>
      </g>
     </g>
    </g>
    <g id="xtick_6">
     <g id="line2d_19">
      <g>
       <use style="stroke:#000000;stroke-width:0.5;" x="518.4" xlink:href="#m93b0483c22" y="388.8"/>
      </g>
     </g>
     <g id="line2d_20">
      <g>
       <use style="stroke:#000000;stroke-width:0.5;" x="518.4" xlink:href="#m741efc42ff" y="43.2"/>
      </g>
     </g>
     <g id="text_6">
      <!-- 1000 -->
      <defs>
       <path d="
M37.25 0
L28.4688 0
L28.4688 56
Q25.2969 52.9844 20.1406 49.9531
Q14.9844 46.9219 10.8906 45.4062
L10.8906 53.9062
Q18.2656 57.375 23.7812 62.2969
Q29.2969 67.2344 31.5938 71.875
L37.25 71.875
z
" id="ArialMT-31"/>
      </defs>
      <g transform="translate(505.9940625 401.389375)scale(0.12 -0.12)">
       <use xlink:href="#ArialMT-31"/>
       <use x="55.615234375" xlink:href="#ArialMT-30"/>
       <use x="111.23046875" xlink:href="#ArialMT-30"/>
       <use x="166.845703125" xlink:href="#ArialMT-30"/>
      </g>
     </g>
    </g>
   </g>
   <g id="matplotlib.axis_2">
    <g id="ytick_1">
     <g id="line2d_21">
      <defs>
       <path d="
M0 0
L4 0" id="m728421d6d4" style="stroke:#000000;stroke-width:0.5;"/>
      </defs>
      <g>
       <use style="stroke:#000000;stroke-width:0.5;" x="72.0" xlink:href="#m728421d6d4" y="388.8"/>
      </g>
     </g>
     <g id="line2d_22">
      <defs>
       <path d="
M0 0
L-4 0" id="mcb0005524f" style="stroke:#000000;stroke-width:0.5;"/>
      </defs>
      <g>
       <use style="stroke:#000000;stroke-width:0.5;" x="518.4" xlink:href="#mcb0005524f" y="388.8"/>
      </g>
     </g>
     <g id="text_7">
      <!-- 0.0 -->
      <defs>
       <path d="
M9.07812 0
L9.07812 10.0156
L19.0938 10.0156
L19.0938 0
z
" id="ArialMT-2e"/>
      </defs>
      <g transform="translate(52.3925 391.9021875)scale(0.12 -0.12)">
       <use xlink:href="#ArialMT-30"/>
       <use x="55.615234375" xlink:href="#ArialMT-2e"/>
       <use x="83.3984375" xlink:href="#ArialMT-30"/>
      </g>
     </g>
    </g>
    <g id="ytick_2">
     <g id="line2d_23">
      <g>
       <use style="stroke:#000000;stroke-width:0.5;" x="72.0" xlink:href="#m728421d6d4" y="319.68"/>
      </g>
     </g>
     <g id="line2d_24">
      <g>
       <use style="stroke:#000000;stroke-width:0.5;" x="518.4" xlink:href="#mcb0005524f" y="319.68"/>
      </g>
     </g>
     <g id="text_8">
      <!-- 0.5 -->
      <defs>
       <path d="
M4.15625 18.75
L13.375 19.5312
Q14.4062 12.7969 18.1406 9.39062
Q21.875 6 27.1562 6
Q33.5 6 37.8906 10.7812
Q42.2812 15.5781 42.2812 23.4844
Q42.2812 31 38.0625 35.3438
Q33.8438 39.7031 27 39.7031
Q22.75 39.7031 19.3281 37.7656
Q15.9219 35.8438 13.9688 32.7656
L5.71875 33.8438
L12.6406 70.6094
L48.25 70.6094
L48.25 62.2031
L19.6719 62.2031
L15.8281 42.9688
Q22.2656 47.4688 29.3438 47.4688
Q38.7188 47.4688 45.1562 40.9688
Q51.6094 34.4688 51.6094 24.2656
Q51.6094 14.5469 45.9531 7.46875
Q39.0625 -1.21875 27.1562 -1.21875
Q17.3906 -1.21875 11.2031 4.25
Q5.03125 9.71875 4.15625 18.75" id="ArialMT-35"/>
      </defs>
      <g transform="translate(52.29875 322.7821875)scale(0.12 -0.12)">
       <use xlink:href="#ArialMT-30"/>
       <use x="55.615234375" xlink:href="#ArialMT-2e"/>
       <use x="83.3984375" xlink:href="#ArialMT-35"/>
      </g>
     </g>
    </g>
    <g id="ytick_3">
     <g id="line2d_25">
      <g>
       <use style="stroke:#000000;stroke-width:0.5;" x="72.0" xlink:href="#m728421d6d4" y="250.56"/>
      </g>
     </g>
     <g id="line2d_26">
      <g>
       <use style="stroke:#000000;stroke-width:0.5;" x="518.4" xlink:href="#mcb0005524f" y="250.56"/>
      </g>
     </g>
     <g id="text_9">
      <!-- 1.0 -->
      <g transform="translate(53.200625 253.6621875)scale(0.12 -0.12)">
       <use xlink:href="#ArialMT-31"/>
       <use x="55.615234375" xlink:href="#ArialMT-2e"/>
       <use x="83.3984375" xlink:href="#ArialMT-30"/>
      </g>
     </g>
    </g>
    <g id="ytick_4">
     <g id="line2d_27">
      <g>
       <use style="stroke:#000000;stroke-width:0.5;" x="72.0" xlink:href="#m728421d6d4" y="181.44"/>
      </g>
     </g>
     <g id="line2d_28">
      <g>
       <use style="stroke:#000000;stroke-width:0.5;" x="518.4" xlink:href="#mcb0005524f" y="181.44"/>
      </g>
     </g>
     <g id="text_10">
      <!-- 1.5 -->
      <g transform="translate(53.106875 184.5421875)scale(0.12 -0.12)">
       <use xlink:href="#ArialMT-31"/>
       <use x="55.615234375" xlink:href="#ArialMT-2e"/>
       <use x="83.3984375" xlink:href="#ArialMT-35"/>
      </g>
     </g>
    </g>
    <g id="ytick_5">
     <g id="line2d_29">
      <g>
       <use style="stroke:#000000;stroke-width:0.5;" x="72.0" xlink:href="#m728421d6d4" y="112.32"/>
      </g>
     </g>
     <g id="line2d_30">
      <g>
       <use style="stroke:#000000;stroke-width:0.5;" x="518.4" xlink:href="#mcb0005524f" y="112.32"/>
      </g>
     </g>
     <g id="text_11">
      <!-- 2.0 -->
      <g transform="translate(52.24625 115.4221875)scale(0.12 -0.12)">
       <use xlink:href="#ArialMT-32"/>
       <use x="55.615234375" xlink:href="#ArialMT-2e"/>
       <use x="83.3984375" xlink:href="#ArialMT-30"/>
      </g>
     </g>
    </g>
    <g id="ytick_6">
     <g id="line2d_31">
      <g>
       <use style="stroke:#000000;stroke-width:0.5;" x="72.0" xlink:href="#m728421d6d4" y="43.2"/>
      </g>
     </g>
     <g id="line2d_32">
      <g>
       <use style="stroke:#000000;stroke-width:0.5;" x="518.4" xlink:href="#mcb0005524f" y="43.2"/>
      </g>
     </g>
     <g id="text_12">
      <!-- 2.5 -->
      <g transform="translate(52.1525 46.3021875)scale(0.12 -0.12)">
       <use xlink:href="#ArialMT-32"/>
       <use x="55.615234375" xlink:href="#ArialMT-2e"/>
       <use x="83.3984375" xlink:href="#ArialMT-35"/>
      </g>
     </g>
    </g>
    <g id="text_13">
     <!-- Mean firing rate -->
     <defs>
      <path d="
M40.4375 6.39062
Q35.5469 2.25 31.0312 0.53125
Q26.5156 -1.17188 21.3438 -1.17188
Q12.7969 -1.17188 8.20312 3
Q3.60938 7.17188 3.60938 13.6719
Q3.60938 17.4844 5.34375 20.625
Q7.07812 23.7812 9.89062 25.6875
Q12.7031 27.5938 16.2188 28.5625
Q18.7969 29.25 24.0312 29.8906
Q34.6719 31.1562 39.7031 32.9062
Q39.75 34.7188 39.75 35.2031
Q39.75 40.5781 37.25 42.7812
Q33.8906 45.75 27.25 45.75
Q21.0469 45.75 18.0938 43.5781
Q15.1406 41.4062 13.7188 35.8906
L5.125 37.0625
Q6.29688 42.5781 8.98438 45.9688
Q11.6719 49.3594 16.75 51.1875
Q21.8281 53.0312 28.5156 53.0312
Q35.1562 53.0312 39.2969 51.4688
Q43.4531 49.9062 45.4062 47.5312
Q47.3594 45.1719 48.1406 41.5469
Q48.5781 39.3125 48.5781 33.4531
L48.5781 21.7344
Q48.5781 9.46875 49.1406 6.21875
Q49.7031 2.98438 51.375 0
L42.1875 0
Q40.8281 2.73438 40.4375 6.39062
M39.7031 26.0312
Q34.9062 24.0781 25.3438 22.7031
Q19.9219 21.9219 17.6719 20.9375
Q15.4375 19.9688 14.2031 18.0938
Q12.9844 16.2188 12.9844 13.9219
Q12.9844 10.4062 15.6406 8.0625
Q18.3125 5.71875 23.4375 5.71875
Q28.5156 5.71875 32.4688 7.9375
Q36.4219 10.1562 38.2812 14.0156
Q39.7031 17 39.7031 22.7969
z
" id="ArialMT-61"/>
      <path d="
M4.98438 -4.29688
L13.5312 -5.5625
Q14.0625 -9.51562 16.5 -11.3281
Q19.7812 -13.7656 25.4375 -13.7656
Q31.5469 -13.7656 34.8594 -11.3281
Q38.1875 -8.89062 39.3594 -4.5
Q40.0469 -1.8125 39.9844 6.78125
Q34.2344 0 25.6406 0
Q14.9375 0 9.07812 7.71875
Q3.21875 15.4375 3.21875 26.2188
Q3.21875 33.6406 5.90625 39.9062
Q8.59375 46.1875 13.6875 49.6094
Q18.7969 53.0312 25.6875 53.0312
Q34.8594 53.0312 40.8281 45.6094
L40.8281 51.8594
L48.9219 51.8594
L48.9219 7.03125
Q48.9219 -5.07812 46.4531 -10.125
Q44 -15.1875 38.6406 -18.1094
Q33.2969 -21.0469 25.4844 -21.0469
Q16.2188 -21.0469 10.5 -16.875
Q4.78125 -12.7031 4.98438 -4.29688
M12.25 26.8594
Q12.25 16.6562 16.2969 11.9688
Q20.3594 7.28125 26.4688 7.28125
Q32.5156 7.28125 36.6094 11.9375
Q40.7188 16.6094 40.7188 26.5625
Q40.7188 36.0781 36.5 40.9062
Q32.2812 45.75 26.3125 45.75
Q20.4531 45.75 16.3438 40.9844
Q12.25 36.2344 12.25 26.8594" id="ArialMT-67"/>
      <path d="
M8.6875 0
L8.6875 45.0156
L0.921875 45.0156
L0.921875 51.8594
L8.6875 51.8594
L8.6875 57.375
Q8.6875 62.5938 9.625 65.1406
Q10.8906 68.5625 14.0781 70.6719
Q17.2812 72.7969 23.0469 72.7969
Q26.7656 72.7969 31.25 71.9219
L29.9375 64.2656
Q27.2031 64.75 24.75 64.75
Q20.75 64.75 19.0938 63.0312
Q17.4375 61.3281 17.4375 56.6406
L17.4375 51.8594
L27.5469 51.8594
L27.5469 45.0156
L17.4375 45.0156
L17.4375 0
z
" id="ArialMT-66"/>
      <path d="
M42.0938 16.7031
L51.1719 15.5781
Q49.0312 7.625 43.2188 3.21875
Q37.4062 -1.17188 28.375 -1.17188
Q17 -1.17188 10.3281 5.82812
Q3.65625 12.8438 3.65625 25.4844
Q3.65625 38.5781 10.3906 45.7969
Q17.1406 53.0312 27.875 53.0312
Q38.2812 53.0312 44.875 45.9531
Q51.4688 38.875 51.4688 26.0312
Q51.4688 25.25 51.4219 23.6875
L12.75 23.6875
Q13.2344 15.1406 17.5781 10.5938
Q21.9219 6.0625 28.4219 6.0625
Q33.25 6.0625 36.6719 8.59375
Q40.0938 11.1406 42.0938 16.7031
M13.2344 30.9062
L42.1875 30.9062
Q41.6094 37.4531 38.875 40.7188
Q34.6719 45.7969 27.9844 45.7969
Q21.9219 45.7969 17.7969 41.75
Q13.6719 37.7031 13.2344 30.9062" id="ArialMT-65"/>
      <path d="
M25.7812 7.85938
L27.0469 0.09375
Q23.3438 -0.6875 20.4062 -0.6875
Q15.625 -0.6875 12.9844 0.828125
Q10.3594 2.34375 9.28125 4.8125
Q8.20312 7.28125 8.20312 15.1875
L8.20312 45.0156
L1.76562 45.0156
L1.76562 51.8594
L8.20312 51.8594
L8.20312 64.7031
L16.9375 69.9688
L16.9375 51.8594
L25.7812 51.8594
L25.7812 45.0156
L16.9375 45.0156
L16.9375 14.7031
Q16.9375 10.9375 17.4062 9.85938
Q17.875 8.79688 18.9219 8.15625
Q19.9688 7.51562 21.9219 7.51562
Q23.3906 7.51562 25.7812 7.85938" id="ArialMT-74"/>
      <path d="
M6.64062 61.4688
L6.64062 71.5781
L15.4375 71.5781
L15.4375 61.4688
z

M6.64062 0
L6.64062 51.8594
L15.4375 51.8594
L15.4375 0
z
" id="ArialMT-69"/>
      <path d="
M6.5 0
L6.5 51.8594
L14.4062 51.8594
L14.4062 44
Q17.4375 49.5156 20 51.2656
Q22.5625 53.0312 25.6406 53.0312
Q30.0781 53.0312 34.6719 50.2031
L31.6406 42.0469
Q28.4219 43.9531 25.2031 43.9531
Q22.3125 43.9531 20.0156 42.2188
Q17.7188 40.4844 16.75 37.4062
Q15.2812 32.7188 15.2812 27.1562
L15.2812 0
z
" id="ArialMT-72"/>
      <path d="
M6.59375 0
L6.59375 51.8594
L14.5 51.8594
L14.5 44.4844
Q20.2188 53.0312 31 53.0312
Q35.6875 53.0312 39.625 51.3438
Q43.5625 49.6562 45.5156 46.9219
Q47.4688 44.1875 48.25 40.4375
Q48.7344 37.9844 48.7344 31.8906
L48.7344 0
L39.9375 0
L39.9375 31.5469
Q39.9375 36.9219 38.9062 39.5781
Q37.8906 42.2344 35.2812 43.8125
Q32.6719 45.4062 29.1562 45.4062
Q23.5312 45.4062 19.4531 41.8438
Q15.375 38.2812 15.375 28.3281
L15.375 0
z
" id="ArialMT-6e"/>
      <path d="
M7.42188 0
L7.42188 71.5781
L21.6875 71.5781
L38.625 20.9062
Q40.9688 13.8125 42.0469 10.2969
Q43.2656 14.2031 45.8438 21.7812
L62.9844 71.5781
L75.7344 71.5781
L75.7344 0
L66.6094 0
L66.6094 59.9062
L45.7969 0
L37.25 0
L16.5469 60.9375
L16.5469 0
z
" id="ArialMT-4d"/>
      <path id="ArialMT-20"/>
     </defs>
     <g transform="translate(44.626875 257.4346875)rotate(-90.0)scale(0.12 -0.12)">
      <use xlink:href="#ArialMT-4d"/>
      <use x="83.30078125" xlink:href="#ArialMT-65"/>
      <use x="138.916015625" xlink:href="#ArialMT-61"/>
      <use x="194.53125" xlink:href="#ArialMT-6e"/>
      <use x="250.146484375" xlink:href="#ArialMT-20"/>
      <use x="277.9296875" xlink:href="#ArialMT-66"/>
      <use x="305.712890625" xlink:href="#ArialMT-69"/>
      <use x="327.9296875" xlink:href="#ArialMT-72"/>
      <use x="361.23046875" xlink:href="#ArialMT-69"/>
      <use x="383.447265625" xlink:href="#ArialMT-6e"/>
      <use x="439.0625" xlink:href="#ArialMT-67"/>
      <use x="494.677734375" xlink:href="#ArialMT-20"/>
      <use x="522.4609375" xlink:href="#ArialMT-72"/>
      <use x="555.76171875" xlink:href="#ArialMT-61"/>
      <use x="611.376953125" xlink:href="#ArialMT-74"/>
      <use x="639.16015625" xlink:href="#ArialMT-65"/>
     </g>
    </g>
   </g>
   <g id="patch_3">
    <path d="
M72 43.2
L518.4 43.2" style="fill:none;stroke:#000000;"/>
   </g>
   <g id="patch_4">
    <path d="
M518.4 388.8
L518.4 43.2" style="fill:none;stroke:#000000;"/>
   </g>
   <g id="patch_5">
    <path d="
M72 388.8
L518.4 388.8" style="fill:none;stroke:#000000;"/>
   </g>
   <g id="patch_6">
    <path d="
M72 388.8
L72 43.2" style="fill:none;stroke:#000000;"/>
   </g>
   <g id="text_14">
    <!-- Mean firing rate for p =0.3 -->
    <defs>
     <path d="
M52.8281 42.0938
L5.5625 42.0938
L5.5625 50.2969
L52.8281 50.2969
z

M52.8281 20.3594
L5.5625 20.3594
L5.5625 28.5625
L52.8281 28.5625
z
" id="ArialMT-3d"/>
     <path d="
M4.20312 18.8906
L12.9844 20.0625
Q14.5 12.5938 18.1406 9.29688
Q21.7812 6 27 6
Q33.2031 6 37.4688 10.2969
Q41.75 14.5938 41.75 20.9531
Q41.75 27 37.7969 30.9219
Q33.8438 34.8594 27.7344 34.8594
Q25.25 34.8594 21.5312 33.8906
L22.5156 41.6094
Q23.3906 41.5 23.9219 41.5
Q29.5469 41.5 34.0312 44.4219
Q38.5312 47.3594 38.5312 53.4688
Q38.5312 58.2969 35.25 61.4688
Q31.9844 64.6562 26.8125 64.6562
Q21.6875 64.6562 18.2656 61.4219
Q14.8438 58.2031 13.875 51.7656
L5.07812 53.3281
Q6.6875 62.1562 12.3906 67.0156
Q18.1094 71.875 26.6094 71.875
Q32.4688 71.875 37.3906 69.3594
Q42.3281 66.8438 44.9375 62.5
Q47.5625 58.1562 47.5625 53.2656
Q47.5625 48.6406 45.0625 44.8281
Q42.5781 41.0156 37.7031 38.7656
Q44.0469 37.3125 47.5625 32.6875
Q51.0781 28.0781 51.0781 21.1406
Q51.0781 11.7656 44.2344 5.25
Q37.4062 -1.26562 26.9531 -1.26562
Q17.5312 -1.26562 11.2969 4.34375
Q5.07812 9.96875 4.20312 18.8906" id="ArialMT-33"/>
     <path d="
M6.59375 -19.875
L6.59375 51.8594
L14.5938 51.8594
L14.5938 45.125
Q17.4375 49.0781 21 51.0469
Q24.5625 53.0312 29.6406 53.0312
Q36.2812 53.0312 41.3594 49.6094
Q46.4375 46.1875 49.0156 39.9531
Q51.6094 33.7344 51.6094 26.3125
Q51.6094 18.3594 48.75 11.9844
Q45.9062 5.60938 40.4531 2.21875
Q35.0156 -1.17188 29 -1.17188
Q24.6094 -1.17188 21.1094 0.6875
Q17.625 2.54688 15.375 5.375
L15.375 -19.875
z

M14.5469 25.6406
Q14.5469 15.625 18.5938 10.8438
Q22.6562 6.0625 28.4219 6.0625
Q34.2812 6.0625 38.4531 11.0156
Q42.625 15.9688 42.625 26.375
Q42.625 36.2812 38.5469 41.2031
Q34.4688 46.1406 28.8125 46.1406
Q23.1875 46.1406 18.8594 40.8906
Q14.5469 35.6406 14.5469 25.6406" id="ArialMT-70"/>
     <path d="
M3.32812 25.9219
Q3.32812 40.3281 11.3281 47.2656
Q18.0156 53.0312 27.6406 53.0312
Q38.3281 53.0312 45.1094 46.0156
Q51.9062 39.0156 51.9062 26.6562
Q51.9062 16.6562 48.9062 10.9062
Q45.9062 5.17188 40.1562 2
Q34.4219 -1.17188 27.6406 -1.17188
Q16.75 -1.17188 10.0312 5.8125
Q3.32812 12.7969 3.32812 25.9219
M12.3594 25.9219
Q12.3594 15.9688 16.7031 11.0156
Q21.0469 6.0625 27.6406 6.0625
Q34.1875 6.0625 38.5312 11.0312
Q42.875 16.0156 42.875 26.2188
Q42.875 35.8438 38.5 40.7969
Q34.125 45.75 27.6406 45.75
Q21.0469 45.75 16.7031 40.8125
Q12.3594 35.8906 12.3594 25.9219" id="ArialMT-6f"/>
    </defs>
    <g transform="translate(212.887125 38.2)scale(0.144 -0.144)">
     <use xlink:href="#ArialMT-4d"/>
     <use x="83.30078125" xlink:href="#ArialMT-65"/>
     <use x="138.916015625" xlink:href="#ArialMT-61"/>
     <use x="194.53125" xlink:href="#ArialMT-6e"/>
     <use x="250.146484375" xlink:href="#ArialMT-20"/>
     <use x="277.9296875" xlink:href="#ArialMT-66"/>
     <use x="305.712890625" xlink:href="#ArialMT-69"/>
     <use x="327.9296875" xlink:href="#ArialMT-72"/>
     <use x="361.23046875" xlink:href="#ArialMT-69"/>
     <use x="383.447265625" xlink:href="#ArialMT-6e"/>
     <use x="439.0625" xlink:href="#ArialMT-67"/>
     <use x="494.677734375" xlink:href="#ArialMT-20"/>
     <use x="522.4609375" xlink:href="#ArialMT-72"/>
     <use x="555.76171875" xlink:href="#ArialMT-61"/>
     <use x="611.376953125" xlink:href="#ArialMT-74"/>
     <use x="639.16015625" xlink:href="#ArialMT-65"/>
     <use x="694.775390625" xlink:href="#ArialMT-20"/>
     <use x="722.55859375" xlink:href="#ArialMT-66"/>
     <use x="750.341796875" xlink:href="#ArialMT-6f"/>
     <use x="805.95703125" xlink:href="#ArialMT-72"/>
     <use x="839.2578125" xlink:href="#ArialMT-20"/>
     <use x="867.041015625" xlink:href="#ArialMT-70"/>
     <use x="922.65625" xlink:href="#ArialMT-20"/>
     <use x="950.439453125" xlink:href="#ArialMT-3d"/>
     <use x="1008.83789062" xlink:href="#ArialMT-30"/>
     <use x="1064.453125" xlink:href="#ArialMT-2e"/>
     <use x="1092.23632812" xlink:href="#ArialMT-33"/>
    </g>
   </g>
  </g>
 </g>
 <defs>
  <clipPath id="p7ff5b81e1d">
   <rect height="345.6" width="446.4" x="72.0" y="43.2"/>
  </clipPath>
 </defs>
</svg>
